<svg width="1982" height="2500" viewBox="0 0 1982 2500" fill="none" xmlns="http://www.w3.org/2000/svg">
<g clip-path="url(#clip0_23_87)">
<path d="M1059.16 3.16577C1067.71 4.7205 1085.98 13.6602 1099.97 23.3772C1144.67 53.6943 1156.33 92.1739 1149.33 181.959C1146.22 221.993 1144.67 228.601 1134.95 240.65C1106.97 277.186 1089.47 320.719 1094.14 344.428C1099.19 371.636 1164.49 430.327 1197.14 436.934C1204.52 438.489 1216.57 445.097 1223.57 452.093C1234.84 462.587 1239.12 464.142 1257.39 464.142C1276.43 464.142 1279.54 465.308 1294.31 479.689C1302.86 488.24 1314.52 504.565 1319.96 515.448C1325.02 526.72 1330.85 536.048 1332.4 536.048C1337.06 536.048 1373.6 583.467 1380.21 598.237C1394.2 629.332 1424.52 665.479 1468.83 703.57C1476.6 710.178 1480.88 717.563 1480.88 724.17C1480.88 735.831 1501.48 759.929 1529.85 780.918C1539.57 788.303 1558.61 804.239 1571.83 816.288C1584.66 827.948 1604.09 845.05 1614.19 853.601C1624.69 862.541 1648.79 887.805 1668.22 909.96C1733.52 984.198 1792.99 1045.22 1801.15 1047.55C1805.43 1048.72 1815.53 1057.66 1822.92 1067.38C1830.3 1077.09 1838.85 1087.2 1841.57 1090.31C1847.4 1096.53 1871.89 1097.69 1875.39 1091.86C1879.66 1085.26 1885.11 1091.86 1885.11 1103.52C1885.11 1110.91 1888.99 1117.52 1897.16 1124.51C1903.76 1129.95 1910.37 1134.62 1912.31 1134.62C1913.87 1134.62 1929.03 1152.11 1945.35 1173.87C1965.17 1200.31 1974.11 1215.08 1972.56 1219.74C1971.39 1223.63 1973.34 1234.12 1976.45 1243.45C1983.83 1264.44 1983.83 1266.77 1975.28 1266.77C1971.39 1266.77 1964.01 1258.61 1957.01 1246.95C1944.96 1226.35 1927.08 1208.86 1924.75 1215.46C1923.97 1217.8 1931.75 1234.51 1941.85 1253.17C1954.29 1276.49 1958.57 1288.15 1955.85 1290.87C1949.63 1297.09 1944.57 1292.03 1922.03 1257.05C1890.16 1207.3 1883.94 1207.69 1894.05 1257.83C1897.93 1276.1 1899.88 1292.03 1898.71 1293.2C1892.88 1299.42 1882.77 1284.65 1873.83 1257.44C1865.28 1229.85 1862.56 1225.96 1836.91 1202.25C1803.87 1171.93 1806.98 1175.43 1789.49 1154.83C1781.72 1145.89 1771.22 1137.34 1766.17 1136.17C1761.12 1135.01 1756.84 1132.29 1756.84 1130.34C1756.84 1128.4 1752.18 1124.51 1745.96 1122.18C1733.52 1116.35 1696.21 1089.92 1692.71 1083.7C1691.15 1081.37 1674.83 1069.71 1656.17 1057.66C1637.9 1046 1607.98 1023.84 1589.71 1009.07C1571.44 993.915 1542.68 972.538 1525.58 961.655C1495.65 942.221 1473.1 922.009 1432.29 877.699C1421.41 866.039 1402.36 846.605 1389.54 834.556C1376.71 822.507 1352.61 798.797 1335.9 781.695C1319.19 764.593 1300.92 748.268 1295.48 745.548C1286.15 740.495 1284.98 740.884 1279.15 749.435C1267.49 766.536 1239.12 833.001 1223.96 878.088C1199.08 952.715 1191.31 1018.79 1201.41 1069.71C1205.69 1090.7 1205.3 1092.64 1196.36 1106.63C1181.2 1129.18 1180.43 1151.72 1194.03 1175.82C1201.8 1189.81 1206.08 1204.97 1208.8 1228.29C1211.52 1249.67 1216.57 1267.55 1222.79 1280.37C1237.95 1309.14 1240.28 1320.8 1235.62 1336.73C1231.73 1349.95 1232.9 1353.83 1258.94 1405.53C1312.58 1513.19 1340.95 1586.65 1343.28 1626.3C1345.23 1653.51 1354.94 1699.76 1362.33 1713.75C1366.22 1721.14 1377.49 1740.57 1387.98 1756.51C1398.09 1772.44 1408.58 1790.71 1411.69 1797.32C1414.41 1803.54 1417.52 1809.76 1418.69 1810.92C1419.85 1812.09 1426.85 1822.58 1434.24 1834.24C1441.62 1845.91 1460.28 1869.23 1475.82 1885.55C1493.31 1904.21 1508.86 1925.59 1517.41 1942.3C1524.41 1957.46 1537.62 1981.56 1546.18 1995.94C1567.94 2033.64 1581.55 2062.01 1589.71 2084.56C1595.54 2101.27 1630.13 2192.22 1660.06 2269.57C1664.72 2281.23 1677.55 2304.94 1688.82 2322.04C1699.7 2339.14 1713.31 2360.91 1719.14 2370.63C1724.58 2380.34 1739.74 2396.67 1752.57 2407.55C1776.28 2427.37 1779.77 2434.76 1771.61 2449.53C1760.34 2471.29 1738.96 2479.85 1691.54 2482.57L1655.4 2484.51L1641.79 2471.29C1630.91 2460.8 1628.58 2455.75 1628.58 2441.75C1628.58 2429.32 1625.86 2422.32 1617.3 2412.6C1604.09 2397.44 1595.54 2378.01 1591.65 2354.69C1588.54 2334.09 1556.67 2267.24 1538.79 2241.97C1510.81 2203.49 1463 2145.97 1439.29 2122.65C1408.97 2092.72 1396.53 2073.28 1362.72 2001.38C1347.95 1970.28 1329.29 1936.47 1321.13 1925.97C1312.58 1915.48 1305.97 1905.37 1305.97 1903.04C1305.97 1901.1 1293.14 1885.94 1277.6 1869.61C1262.44 1853.29 1244.56 1830.36 1238.34 1818.7C1232.12 1807.04 1212.3 1775.94 1194.42 1750.29L1162.16 1702.87L1136.12 1700.54C1095.3 1696.26 1087.92 1696.26 1062.66 1699.37L1038.56 1702.48L1017.96 1664.39C988.806 1609.98 949.938 1545.07 943.33 1539.62C938.666 1535.74 931.281 1538.07 905.24 1550.51C887.36 1559.06 865.983 1567.22 857.82 1568.78C850.047 1569.94 843.439 1572.27 843.439 1573.44C843.439 1574.99 837.609 1586.27 830.224 1598.32C822.839 1610.36 813.899 1632.91 810.013 1648.45C806.126 1664 801.462 1678.77 799.518 1681.49C797.575 1684.21 786.303 1686.55 774.254 1687.32L752.488 1688.49L718.284 1735.13C699.238 1760.78 674.363 1797.32 662.314 1815.98C642.491 1848.24 640.936 1851.74 643.657 1867.28C645.211 1879.33 644.046 1887.88 639.77 1896.43C636.661 1903.43 627.332 1932.58 619.947 1961.73C599.347 2039.08 590.019 2060.46 557.758 2100.49C481.965 2194.55 450.482 2240.42 423.663 2294.83C387.127 2369.46 380.908 2390.45 376.244 2448.36C374.3 2475.18 371.58 2498.11 370.025 2499.67C368.47 2501.22 321.828 2498.11 266.247 2492.67C210.665 2487.23 131.763 2482.18 90.9517 2481.79C20.989 2480.62 0 2477.51 0 2468.18C0 2463.13 29.1511 2450.31 58.3022 2442.14C106.11 2428.93 172.575 2401.72 180.737 2392C185.012 2386.95 194.341 2381.9 201.337 2380.34C209.888 2378.4 213.775 2375.68 212.998 2371.79C212.22 2367.9 216.496 2364.02 224.658 2361.3C232.82 2358.58 247.979 2344.97 266.247 2323.98L295.398 2291.33L318.33 2219.04C331.157 2179.39 342.817 2141.69 344.372 2135.47C345.538 2128.87 349.036 2119.93 352.146 2115.65C354.866 2110.99 366.527 2081.45 378.187 2049.57C405.395 1975.34 428.716 1922.09 441.154 1905.76C446.595 1898.77 450.871 1889.83 450.871 1885.94C450.871 1882.05 453.591 1875.06 456.701 1870.39C463.697 1860.68 471.86 1835.41 477.69 1807.43C480.022 1795.77 485.463 1780.22 489.739 1772.44C493.626 1764.67 497.901 1752.23 499.067 1744.85C500.233 1737.46 507.618 1720.75 515.781 1707.92C528.996 1686.16 529.773 1682.66 530.162 1650.79C530.551 1631.74 529.384 1616.58 527.441 1616.58C520.833 1616.58 526.275 1592.48 551.539 1510.47C566.309 1463.05 584.577 1410.97 592.74 1395.03C600.902 1379.1 611.008 1355.39 614.894 1342.56C619.17 1329.74 626.166 1314.58 630.053 1309.14C633.94 1303.31 637.438 1296.31 637.438 1293.2C637.438 1279.6 646.766 1257.44 657.649 1245L670.087 1231.01L662.702 1217.8C656.872 1206.52 656.095 1199.53 658.038 1169.21C659.593 1149.78 662.314 1131.12 664.257 1127.62C666.2 1124.12 666.2 1118.29 663.868 1112.85C660.759 1105.86 661.536 1101.19 667.755 1091.09C686.023 1061.16 733.831 939.888 748.99 885.862C757.929 852.824 760.65 823.673 754.82 823.673C746.657 823.673 705.846 876.145 679.027 921.62C665.423 944.553 515.003 1091.09 453.592 1141.23C442.32 1150.55 425.218 1162.21 415.501 1167.27C405.784 1172.32 395.678 1179.32 393.346 1182.43C390.625 1185.54 385.184 1187.48 381.685 1186.31C376.633 1185.15 369.636 1192.14 356.421 1211.97C345.927 1226.74 332.323 1243.45 325.327 1248.5C318.33 1253.94 298.119 1276.49 279.851 1299.03C261.583 1321.96 244.869 1340.23 242.149 1340.62C232.82 1340.62 232.82 1332.07 242.926 1315.35C256.53 1292.03 249.534 1292.81 214.552 1319.24C199.005 1330.9 182.681 1340.62 178.405 1340.62C165.19 1340.62 170.243 1327.4 191.231 1308.75C208.722 1293.2 210.666 1290.09 204.835 1287.76C199.782 1285.82 190.843 1290.09 174.907 1301.36C148.476 1320.02 139.925 1321.57 139.925 1307.58C139.925 1300.2 149.254 1290.48 183.458 1262.49C207.556 1242.67 227.379 1225.18 227.379 1222.85C227.379 1220.91 224.658 1217.41 221.16 1215.07C216.107 1211.97 204.835 1215.07 172.186 1229.07C148.865 1239.17 127.488 1247.34 124.767 1247.34C122.046 1247.34 120.491 1243.84 121.269 1238.78C122.435 1229.07 157.805 1203.8 194.341 1186.7C222.326 1173.49 233.209 1162.99 233.209 1149.78C233.209 1141.61 230.488 1137.34 221.549 1132.67C215.33 1129.57 208.333 1126.84 206.001 1126.84C194.341 1126.84 160.137 1106.63 155.861 1097.3C150.031 1084.09 152.752 1081.76 168.299 1086.81C174.907 1089.53 192.009 1093.42 206.001 1095.75C219.994 1098.08 242.537 1102.75 256.53 1105.86C302.394 1115.96 310.945 1114.41 336.987 1089.92C349.425 1078.26 361.085 1068.54 363.029 1068.54C370.802 1068.54 421.72 1011.02 466.418 952.326C508.007 897.522 521.999 880.42 547.264 856.711C564.366 840.386 579.136 821.341 579.136 815.122C579.136 811.235 582.634 805.016 586.909 801.518C591.185 797.631 594.683 790.246 594.683 785.193C594.683 779.752 598.57 771.589 603.234 766.536C610.619 758.763 611.008 756.819 606.343 753.71C601.679 750.601 602.457 748.268 611.008 741.272C623.057 731.167 638.604 695.019 649.487 653.819C664.257 595.128 683.691 549.652 703.125 527.497C708.955 520.501 715.174 510.784 716.729 505.731C723.337 485.52 787.469 452.093 827.892 448.206C841.884 446.651 855.877 443.542 858.986 440.821C862.096 438.101 874.534 431.493 886.971 426.051C899.021 420.61 910.681 412.836 913.013 408.561C915.345 403.897 917.289 379.41 917.289 352.202C917.289 308.281 916.511 303.228 909.126 296.62C892.802 281.851 888.526 267.858 888.526 228.99C888.526 202.948 891.247 183.125 897.077 161.748C901.741 145.423 905.628 127.544 905.628 122.102C905.628 105.778 920.787 71.185 934.002 57.5812C940.998 50.1963 949.938 39.7018 953.436 33.8716C957.323 27.6527 970.538 17.9357 983.365 11.3281C1007.07 -0.721024 1024.56 -2.66445 1059.16 3.16577ZM1101.52 610.675L1094.14 627.388L1092.97 610.675C1092.2 599.792 1089.86 594.351 1085.98 594.351C1080.92 594.351 1080.15 598.626 1079.37 639.049C1078.98 670.143 1087.53 672.864 1099.19 645.657L1107.35 627.388L1107.74 645.657C1107.74 659.649 1109.3 664.313 1113.57 664.313C1118.24 664.313 1119.4 658.094 1119.4 632.053C1115.35 599.015 1113.96 582.301 1101.52 610.675ZM995.025 599.015C995.025 601.735 996.58 610.287 998.523 617.671C1007.07 651.098 1007.07 651.875 998.912 653.43C986.863 655.374 987.64 662.37 999.689 663.536C1012.52 665.091 1016.01 655.762 1010.96 632.441C1009.02 623.502 1006.3 611.064 1004.74 604.845C1002.8 594.351 995.025 590.075 995.025 599.015ZM1031.95 602.902C1031.17 605.622 1029.62 620.781 1028.06 635.94C1026.12 660.038 1026.51 664.313 1031.56 664.313C1035.06 664.313 1037.78 660.815 1037.78 656.54C1037.78 650.321 1040.5 648.766 1049.44 648.766C1057.21 648.766 1061.1 650.709 1061.1 654.596C1061.1 657.706 1062.66 660.426 1064.99 660.426C1073.93 660.426 1063.04 618.837 1050.61 605.234C1043.22 597.071 1034.28 595.905 1031.95 602.902ZM1137.28 610.675C1129.12 622.336 1129.12 657.706 1137.28 665.868C1145.44 674.03 1157.11 673.642 1161.38 665.091C1163.32 661.593 1165.27 649.543 1165.66 638.272C1166.43 621.947 1164.88 616.894 1157.88 610.286C1146.61 600.181 1144.67 600.181 1137.28 610.675ZM939.055 604.456C930.504 607.954 931.281 634.773 940.609 655.374C946.828 669.755 949.549 672.087 959.655 672.087C981.421 672.087 983.364 669.755 977.534 651.487C974.425 642.547 963.679 637.494 961.347 628.166C957.849 614.562 961.987 602.124 954.213 602.124C949.161 602.124 942.553 603.29 939.055 604.456ZM886.194 623.502C875.7 635.94 898.632 683.747 914.957 683.747C930.115 683.747 934.779 674.419 928.949 656.54C917.289 621.17 899.409 607.566 886.194 623.502ZM1177.71 631.275C1177.71 636.717 1175.76 648.766 1173.04 658.483C1168.77 673.642 1169.15 676.751 1173.82 679.861C1178.48 682.581 1180.43 680.638 1183.15 669.755C1187.42 652.653 1195.2 654.596 1195.2 673.253C1195.2 696.962 1204.91 694.63 1205.69 670.921C1206.47 640.215 1205.69 635.551 1196.75 628.166C1185.09 618.837 1177.71 620.004 1177.71 631.275ZM1003.58 744.382L986.863 773.533L991.138 797.631C993.859 810.846 998.134 832.224 1001.63 845.05C1011.35 884.696 1018.35 929.394 1018.35 953.881C1018.35 966.708 1023.01 996.636 1028.84 1020.35L1038.95 1063.49L1066.54 1065.82C1081.31 1067.38 1094.53 1067.38 1095.69 1066.21C1099.19 1062.71 1088.31 1007.13 1078.59 976.813C1071.21 955.047 1068.87 941.443 1070.43 930.172C1073.54 906.462 1066.54 869.926 1051.38 831.835C1044 813.178 1036.61 792.189 1035.45 785.582L1032.73 773.144H1150.5V714.842H1085.2L1020.29 715.231L1003.58 744.382Z" fill="black"/>
<rect x="861" y="563" width="296" height="548" fill="black"/>
<rect x="1063" y="570" width="157" height="146" fill="black"/>
</g>
<defs>
<clipPath id="clip0_23_87">
<rect width="1982" height="2500" fill="white"/>
</clipPath>
</defs>
</svg>
