<svg width="1136" height="821" viewBox="0 0 1136 821" fill="none" xmlns="http://www.w3.org/2000/svg">
<path fill-rule="evenodd" clip-rule="evenodd" d="M1052.52 0H1102.66C1120.57 0 1135.45 14.603 1135.45 32.5123V947.267C1135.45 965.451 1120.57 980.054 1102.66 980.054H1052.52C1034.61 980.054 1020.01 965.451 1020.01 947.267V32.5123C1020.01 14.603 1034.61 0 1052.52 0ZM501.462 0H587.151H622.969V40.7782V54.5546C591.008 83.2096 571.446 121.232 569.793 173.307V292.06C562.629 289.305 545.822 288.478 541.413 287.376C536.178 285.998 537.831 282.417 537.005 280.488C536.454 279.11 533.423 278.835 530.668 276.906V173.307C532.872 110.211 557.669 72.7395 587.151 47.6664V40.7782H501.462V0ZM569.793 355.983V883.895C567.037 872.047 562.904 854.413 558.22 841.739C550.781 821.626 535.903 783.052 533.974 781.123C533.423 780.296 532.045 778.643 530.668 775.888V335.594C531.494 335.869 532.596 336.145 534.249 336.696C538.107 337.798 557.945 349.094 566.486 354.605C567.037 354.881 568.415 355.432 569.793 355.983ZM568.415 980.054H530.668V891.61C532.596 894.365 534.525 897.12 536.454 899.6C540.862 905.386 557.669 943.409 557.394 950.573C557.118 958.012 559.598 957.186 564.006 968.207C565.384 972.064 566.762 976.197 568.415 980.054ZM179.644 0H188.186H229.791C247.7 0 262.578 14.603 262.578 32.5123V55.1057V120.13V136.938C262.578 153.745 249.629 167.797 233.372 169.45V169.725C247.975 171.379 259.823 182.951 262.027 197.554H262.578V202.238V285.447C261.752 286.825 260.925 287.927 259.823 289.58C256.241 295.091 254.037 302.53 250.731 311.347C247.149 320.164 244.945 320.715 236.679 324.848C228.413 328.981 226.209 336.145 224.556 339.726C224.28 340.002 224.005 340.553 223.453 340.829V309.418V230.342V189.564H222.902H187.084H186.533V230.342V309.418V367.279C177.44 374.719 156.5 391.526 147.132 398.138V169.725V136.938V120.13V55.1057V49.5951V32.5123V0H179.644ZM262.578 371.412V555.19C261.476 558.496 260.374 562.904 259.272 568.415C257.068 581.089 251.833 625.174 246.598 646.39C241.363 667.605 241.087 690.199 241.914 693.78C242.74 697.362 244.394 700.118 245.22 706.179C246.047 711.965 242.465 718.027 234.199 735.936C226.209 754.121 233.648 762.663 227.311 772.031C226.209 773.408 224.831 775.337 223.453 777.541V563.731V517.718V401.169C228.137 398.414 231.995 395.934 234.75 394.006C246.322 385.189 258.721 374.719 262.578 371.412ZM262.578 846.699V874.252H263.681V980.054H262.578H223.453V907.59C226.209 905.111 230.893 899.049 237.505 886.099C244.394 872.598 255.69 856.067 262.578 846.699ZM186.533 420.456V517.718V563.731V874.252H187.084V893.814C184.604 903.733 181.849 913.377 178.542 921.091C168.623 942.583 156.5 954.43 147.132 958.563V947.267V874.252V443.05C149.612 441.396 151.816 440.019 153.469 439.468C161.735 436.161 159.806 435.335 165.317 433.957C170.828 432.58 176.063 426.242 178.267 424.589C178.818 424.314 181.849 422.661 186.533 420.456ZM223.453 152.643H222.902H187.084H186.533V55.1057V37.4719H187.084H222.902H223.453V55.1057V152.643ZM408.333 180.747V224.28C402.271 218.77 397.863 212.708 397.863 212.708C397.863 212.708 396.485 201.136 396.485 189.839C396.485 187.635 396.21 184.604 396.21 180.747H408.333ZM408.333 694.607V943.685H442.774V722.711C443.876 724.364 444.703 725.466 444.978 726.293C448.56 731.252 458.204 756.05 464.816 766.795C470.602 776.714 477.491 781.674 480.246 787.185V947.267C480.246 965.451 466.194 980.054 449.387 980.054H401.996C385.189 980.054 371.137 965.451 371.137 947.267V643.634L387.944 695.709L408.333 694.607ZM442.774 239.71V232.27L443.325 181.849C432.028 159.255 410.262 148.785 393.73 136.111V135.835C393.454 134.458 393.179 133.356 391.526 127.845C390.148 122.335 385.464 109.66 376.923 103.874C375.545 103.048 373.892 102.221 372.239 101.67C372.239 101.394 372.239 101.394 372.239 101.119L371.137 86.5159V32.5123C371.137 14.603 385.189 0 401.996 0H449.387C466.194 0 480.246 14.603 480.246 32.5123V86.2404L442.774 97.2615V37.4719H408.333V80.4543C408.333 115.171 481.348 123.988 479.97 175.787L480.246 232.27V247.976C475.286 247.149 469.776 245.771 466.469 244.118C459.03 241.087 458.479 233.648 458.479 233.648C458.479 233.648 446.631 239.159 442.774 239.71ZM480.246 330.083V617.735C474.184 600.652 455.999 549.128 456.275 539.76C456.826 528.188 463.714 527.637 461.234 517.167C458.479 506.697 455.448 499.257 451.315 489.338C447.182 479.695 447.458 432.028 446.08 418.528C444.703 405.027 461.51 351.574 463.714 344.41C465.918 337.522 465.643 333.114 480.246 330.083ZM298.397 0H337.798V103.048C333.665 104.976 329.807 108.007 326.226 111.865C319.062 119.304 318.235 125.365 318.235 133.631C317.96 141.897 323.47 167.246 323.47 167.246C323.47 167.246 319.062 166.419 317.133 167.797C315.204 169.45 315.755 173.032 317.684 179.369C319.613 185.706 326.777 189.288 328.43 190.941C330.083 192.319 336.145 199.758 337.798 205.269V230.893C336.696 231.719 335.593 232.821 333.94 234.199C330.91 236.954 324.848 238.332 320.99 237.505C317.133 236.403 317.133 242.465 313.551 243.292C310.245 243.843 309.694 243.016 307.765 244.394C306.387 245.771 304.734 247.149 298.397 251.282V0ZM337.798 705.628V980.054H298.397V732.905C301.979 723.813 306.663 713.067 309.143 710.588C313 707.557 330.634 706.179 337.798 705.628ZM32.5123 0H82.6585C100.843 0 115.446 14.603 115.446 32.5123V172.481H76.0458V37.4719H39.4005V943.685H76.0458V232.27H115.446V409.711C114.344 409.711 112.967 409.711 110.762 409.711C107.181 409.435 93.9552 407.506 89.2712 404.476C84.5872 401.445 83.7606 404.2 83.7606 404.2C83.7606 404.2 86.5159 411.639 91.4754 414.395C96.7104 417.15 106.354 417.701 107.456 420.181C108.834 422.661 103.599 427.896 99.4657 431.477C95.3328 435.059 85.9648 441.948 79.0766 449.938C72.4639 457.928 78.5256 459.306 79.6277 459.306C81.0053 459.306 88.4446 451.867 93.6796 447.458C98.9147 443.05 106.629 441.948 108.558 444.427C110.211 446.907 85.6893 471.705 85.1382 476.389C84.5872 480.797 88.9956 481.624 92.0265 479.97C95.0573 478.042 110.762 454.897 112.416 454.897C113.793 454.897 112.967 456.826 111.038 460.132C109.109 463.439 100.568 474.184 98.0881 480.521C95.6083 486.859 97.8126 486.032 101.394 485.205C105.252 484.379 107.181 478.042 112.967 471.98C113.793 471.429 114.344 470.602 115.446 469.776V947.267C115.446 965.451 100.843 980.054 82.6585 980.054H32.5123C14.603 980.054 0 965.451 0 947.267V32.5123C0 14.603 14.603 0 32.5123 0ZM867.639 0H907.039L943.96 96.986V0H983.361V980.054H943.96V173.032L907.039 84.8627V980.054H867.639V0ZM644.461 0H683.586V339.451C680.555 339.726 677.8 339.451 676.146 338.9C672.565 338.073 671.463 333.94 669.534 332.287C667.881 330.91 654.655 328.154 644.461 327.603V0ZM683.586 376.647V980.054H644.461V374.168C646.94 374.443 650.522 374.719 654.104 374.994C659.615 375.27 664.574 373.892 670.085 373.616C673.391 373.341 677.8 374.994 683.586 376.647ZM750.539 0H800.685C818.87 0 833.473 14.603 833.473 32.5123V874.252H834.575V980.054H800.685H794.624V347.992H757.427V356.258C755.223 355.707 753.294 355.156 751.917 354.881C748.886 354.054 736.487 352.125 733.181 352.125C729.599 352.125 724.364 347.717 724.364 346.339C724.364 344.686 727.119 343.033 730.15 336.696C733.456 330.083 730.977 324.848 729.599 323.195C728.497 321.266 726.293 324.021 726.017 327.052C725.742 329.532 721.884 333.665 718.027 334.767V32.5123C718.027 14.603 732.63 0 750.539 0ZM757.427 362.32V370.035C752.468 368.657 747.233 367.279 745.029 366.177C741.171 363.973 742.549 362.044 742.549 362.044C742.549 362.044 750.815 362.32 757.427 362.32ZM757.427 377.474V389.046C751.917 385.464 744.477 380.78 742.273 379.127C738.691 376.096 742.273 374.443 742.273 374.443C742.273 374.443 750.539 376.372 757.427 377.474ZM757.427 396.761V874.252H757.978V980.054H750.539H718.027V947.267V874.252V387.944C720.782 389.046 722.711 390.148 723.262 390.699C725.742 392.077 737.314 410.262 741.998 412.741C746.406 415.497 746.957 411.639 746.682 409.435C746.131 407.231 735.661 395.383 733.181 390.975C730.701 386.566 732.354 383.811 736.212 383.811C739.242 383.811 750.815 392.077 757.427 396.761ZM794.624 309.418V37.4719H794.073H757.978H757.427V309.418H794.624ZM1059.41 37.4719H1095.78V943.685H1059.41V37.4719Z" fill="#383838"/>
</svg>
